<?xml version="1.0" encoding="utf-8"?>
<!-- Generator: Adobe Illustrator 18.0.0, SVG Export Plug-In . SVG Version: 6.00 Build 0)  -->
<!DOCTYPE svg PUBLIC "-//W3C//DTD SVG 1.1//EN" "http://www.w3.org/Graphics/SVG/1.1/DTD/svg11.dtd">
<svg version="1.1" id="Capa_1" xmlns="http://www.w3.org/2000/svg" xmlns:xlink="http://www.w3.org/1999/xlink" x="0px" y="0px"
	 viewBox="0 0 1920 1080" enable-background="new 0 0 1920 1080" xml:space="preserve">
<rect x="-0.5" y="-4" width="1923.5" height="1084"/>
<text transform="matrix(1 0 0 1 255.3721 66.5864)" fill="#FFFFFF" font-family="'MyriadPro-Regular'" font-size="21.6097">Producto Actual</text>
<text transform="matrix(1 0 0 1 257.6382 164.6943)" fill="#FFFFFF" font-family="'MyriadPro-Bold'" font-size="76.2083">VITRODURO</text>
<text transform="matrix(1 0 0 1 794.7793 66.5864)" fill="#FFFFFF" font-family="'MyriadPro-Regular'" font-size="21.6097">Lote</text>
<text transform="matrix(1 0 0 1 788.3101 168.8389)" fill="#FFFFFF" font-family="'MyriadPro-Bold'" font-size="90.3282">4 / 10</text>
<text transform="matrix(1 0 0 1 193.6816 284.4834)" fill="#FFFFFF" font-family="'MyriadPro-BoldCond'" font-size="21.6097">Clave Producto</text>
<text transform="matrix(1 0 0 1 415.9326 284.4834)" fill="#FFFFFF" font-family="'MyriadPro-BoldCond'" font-size="21.6097">Producto</text>
<text transform="matrix(1 0 0 1 597.9639 284.4834)" fill="#FFFFFF" font-family="'MyriadPro-BoldCond'" font-size="21.6097">Cantidad Base</text>
<text transform="matrix(1 0 0 1 775.3442 284.4834)" fill="#FFFFFF" font-family="'MyriadPro-BoldCond'" font-size="21.6097">Cantidad Suministrada</text>
<text transform="matrix(1 0 0 1 1022.5557 284.4834)" fill="#FFFFFF" font-family="'MyriadPro-BoldCond'" font-size="21.6097">Diferencia</text>
<text transform="matrix(1 0 0 1 1221.6465 284.4834)" fill="#FFFFFF" font-family="'MyriadPro-BoldCond'" font-size="21.6097">Origen del Peso</text>
<text transform="matrix(1 0 0 1 1440.0947 284.4834)" fill="#FFFFFF" font-family="'MyriadPro-BoldCond'" font-size="21.6097">Validacion</text>
<g>
	<text transform="matrix(1 0 0 1 209.4775 391.0044)" fill="#FFFFFF" font-family="'NirmalaUI-Semilight'" font-size="51.2805">CBL</text>
	<text transform="matrix(1 0 0 1 367.229 365.9536)"><tspan x="0" y="0" fill="#FFFFFF" font-family="'NirmalaUI-Semilight'" font-size="21.3469">Cemento lafarge </tspan><tspan x="20.5" y="25.6" fill="#FFFFFF" font-family="'NirmalaUI-Semilight'" font-size="21.3469">Blanco 50 kg</tspan></text>
	<text transform="matrix(1 0 0 1 582.3955 391.0044)" fill="#FFFFFF" font-family="'NirmalaUI-Semilight'" font-size="51.2805">180 kg</text>
	<text transform="matrix(1 0 0 1 788.9878 391.0034)" fill="#FFFFFF" font-family="'NirmalaUI-Semilight'" font-size="51.2805">140 kg</text>
	<line fill="#FFFFFF" stroke="#738891" stroke-width="3" stroke-miterlimit="10" x1="345.5" y1="319" x2="345.5" y2="406"/>
	<line fill="#FFFFFF" stroke="#738891" stroke-width="3" stroke-miterlimit="10" x1="759.5" y1="319" x2="759.5" y2="406"/>
	<line fill="#FFFFFF" stroke="#738891" stroke-width="3" stroke-miterlimit="10" x1="1171.5" y1="319" x2="1171.5" y2="406"/>
	<line fill="#FFFFFF" stroke="#738891" stroke-width="3" stroke-miterlimit="10" x1="965.5" y1="319" x2="965.5" y2="406"/>
	<line fill="#FFFFFF" stroke="#738891" stroke-width="3" stroke-miterlimit="10" x1="552.5" y1="319" x2="552.5" y2="406"/>
	<line fill="#FFFFFF" stroke="#738891" stroke-width="3" stroke-miterlimit="10" x1="1377.5" y1="319" x2="1377.5" y2="406"/>
	
		<image overflow="visible" width="381" height="296" xlink:href="../../../../../../Ingenieria/Siemens/S71200/Libnodave/otro ejemplo/testlib2/testlib/testlib/Resources/nel.png"  transform="matrix(0.2032 0 0 0.2032 1446.3834 330.8693)">
	</image>
	<text transform="matrix(1 0 0 1 984.9785 391.0044)" fill="#FFFFFF" font-family="'NirmalaUI-Semilight'" font-size="51.2805">- 40 kg</text>
	<text transform="matrix(1 0 0 1 1205.7354 386.3677)" fill="#FFFFFF" font-family="'NirmalaUI-Semilight'" font-size="43.9309">Bascula</text>
</g>
<g>
	
		<image overflow="visible" width="381" height="296" xlink:href="../../../../../../Ingenieria/Siemens/S71200/Libnodave/otro ejemplo/testlib2/testlib/testlib/Resources/ok.png"  transform="matrix(0.1661 0 0 0.1661 1446.3834 474.82)">
	</image>
	<text transform="matrix(1 0 0 1 196.8721 517.061)" fill="#FFFFFF" font-family="'NirmalaUI-Semilight'" font-size="51.2805">MOR</text>
	<text transform="matrix(1 0 0 1 405.9727 492.0083)"><tspan x="0" y="0" fill="#FFFFFF" font-family="'NirmalaUI-Semilight'" font-size="21.3469">Mortero </tspan><tspan x="-20.8" y="25.6" fill="#FFFFFF" font-family="'NirmalaUI-Semilight'" font-size="21.3469">Tolteca 50 kg</tspan></text>
	<text transform="matrix(1 0 0 1 582.3955 517.061)" fill="#FFFFFF" font-family="'NirmalaUI-Semilight'" font-size="51.2805">450 kg</text>
	<text transform="matrix(1 0 0 1 788.9878 517.061)" fill="#FFFFFF" font-family="'NirmalaUI-Semilight'" font-size="51.2805">450 kg</text>
	<line fill="#FFFFFF" stroke="#738891" stroke-width="3" stroke-miterlimit="10" x1="345.5" y1="445" x2="345.5" y2="532"/>
	<line fill="#FFFFFF" stroke="#738891" stroke-width="3" stroke-miterlimit="10" x1="759.5" y1="445" x2="759.5" y2="532"/>
	<line fill="#FFFFFF" stroke="#738891" stroke-width="3" stroke-miterlimit="10" x1="1171.5" y1="445" x2="1171.5" y2="532"/>
	<line fill="#FFFFFF" stroke="#738891" stroke-width="3" stroke-miterlimit="10" x1="965.5" y1="445" x2="965.5" y2="532"/>
	<line fill="#FFFFFF" stroke="#738891" stroke-width="3" stroke-miterlimit="10" x1="552.5" y1="445" x2="552.5" y2="532"/>
	<line fill="#FFFFFF" stroke="#738891" stroke-width="3" stroke-miterlimit="10" x1="1377.5" y1="445" x2="1377.5" y2="532"/>
	<text transform="matrix(1 0 0 1 984.9785 517.061)" fill="#FFFFFF" font-family="'NirmalaUI-Semilight'" font-size="51.2805">   0 kg</text>
	<text transform="matrix(1 0 0 1 1230.4785 512.4224)" fill="#FFFFFF" font-family="'NirmalaUI-Semilight'" font-size="43.9309">Grua</text>
</g>
<text transform="matrix(1 0 0 1 177.4741 774.9863)"><tspan x="0" y="0" fill="#FFFFFF" font-family="'MyriadPro-Regular'" font-size="43.137">Juan de Dios Garcia Dueñas</tspan><tspan x="0" y="51.8" fill="#FFFFFF" font-family="'MyriadPro-Regular'" font-size="43.137">Alejandro Robles Rodriguez</tspan></text>
<text transform="matrix(1 0 0 1 1410.6377 973.0527)" fill="#FFFFFF" font-family="'MyriadPro-Regular'" font-size="60.1854">PEGADURO</text>
<text transform="matrix(1 0 0 1 1407.8623 1016.0547)"><tspan x="0" y="0" fill="#FFFFFF" font-family="'MyriadPro-Regular'" font-size="29.2751">El Adhesivo</tspan><tspan x="141.5" y="0" font-family="'MyriadPro-Regular'" font-size="29.2751"> </tspan><tspan x="147.7" y="0" fill="#E06D19" font-family="'MyriadPro-Regular'" font-size="29.2751">MÁS</tspan><tspan x="203.5" y="0" font-family="'MyriadPro-Regular'" font-size="29.2751"> </tspan><tspan x="209.8" y="0" fill="#FFFFFF" font-family="'MyriadPro-Regular'" font-size="29.2751">Seguro</tspan></text>
<line fill="#E06D19" stroke="#FF5500" stroke-miterlimit="10" x1="1399.2" y1="916.6" x2="1712.5" y2="916.6"/>
<line fill="#E06D19" stroke="#000000" stroke-miterlimit="10" x1="1206.1" y1="125" x2="1546.2" y2="125"/>
<text transform="matrix(1 0 0 1 942.1699 1021.0713)" fill="#FF5500" font-family="'MyriadPro-Bold'" font-size="68.2591">Materia Prima</text>
<line fill="#E06D19" stroke="#FF5500" stroke-miterlimit="10" x1="1399.2" y1="1036" x2="1712.5" y2="1036"/>
<text transform="matrix(1 0 0 1 1187.3564 66.5864)" fill="#FFFFFF" font-family="'MyriadPro-Regular'" font-size="21.6097">Fabricacion</text>
<text transform="matrix(1 0 0 1 1174.0625 168.8389)" fill="#FFFFFF" font-family="'MyriadPro-Bold'" font-size="90.3282">70254</text>
<g>
	
		<image overflow="visible" width="381" height="296" xlink:href="../../../../../../Ingenieria/Siemens/S71200/Libnodave/otro ejemplo/testlib2/testlib/testlib/Resources/ok.png"  transform="matrix(0.1661 0 0 0.1661 1446.3834 599.0759)">
	</image>
	<text transform="matrix(1 0 0 1 196.8721 641.3174)" fill="#FFFFFF" font-family="'NirmalaUI-Semilight'" font-size="51.2805">MOR</text>
	<text transform="matrix(1 0 0 1 405.9727 616.2666)"><tspan x="0" y="0" fill="#FFFFFF" font-family="'NirmalaUI-Semilight'" font-size="21.3469">Mortero </tspan><tspan x="-20.8" y="25.6" fill="#FFFFFF" font-family="'NirmalaUI-Semilight'" font-size="21.3469">Tolteca 50 kg</tspan></text>
	<text transform="matrix(1 0 0 1 582.3955 641.3184)" fill="#FFFFFF" font-family="'NirmalaUI-Semilight'" font-size="51.2805">450 kg</text>
	<text transform="matrix(1 0 0 1 788.9878 641.3164)" fill="#FFFFFF" font-family="'NirmalaUI-Semilight'" font-size="51.2805">450 kg</text>
	<line fill="#FFFFFF" stroke="#738891" stroke-width="3" stroke-miterlimit="10" x1="345.5" y1="569" x2="345.5" y2="656"/>
	<line fill="#FFFFFF" stroke="#738891" stroke-width="3" stroke-miterlimit="10" x1="759.5" y1="569" x2="759.5" y2="656"/>
	<line fill="#FFFFFF" stroke="#738891" stroke-width="3" stroke-miterlimit="10" x1="1171.5" y1="569" x2="1171.5" y2="656"/>
	<line fill="#FFFFFF" stroke="#738891" stroke-width="3" stroke-miterlimit="10" x1="965.5" y1="569" x2="965.5" y2="656"/>
	<line fill="#FFFFFF" stroke="#738891" stroke-width="3" stroke-miterlimit="10" x1="552.5" y1="569" x2="552.5" y2="656"/>
	<line fill="#FFFFFF" stroke="#738891" stroke-width="3" stroke-miterlimit="10" x1="1377.5" y1="569" x2="1377.5" y2="656"/>
	<text transform="matrix(1 0 0 1 984.9785 641.3184)" fill="#FFFFFF" font-family="'NirmalaUI-Semilight'" font-size="51.2805">   0 kg</text>
	<text transform="matrix(1 0 0 1 1230.4785 636.6807)" fill="#FFFFFF" font-family="'NirmalaUI-Semilight'" font-size="43.9309">Grua</text>
</g>
<text transform="matrix(1 0 0 1 255.3721 722.082)" fill="#FFFFFF" font-family="'MyriadPro-Regular'" font-size="21.6097">Operadores</text>
<text transform="matrix(1 0 0 1 1014.4785 722.082)" fill="#FFFFFF" font-family="'MyriadPro-Regular'" font-size="21.6097">Nucleo</text>
<text transform="matrix(1 0 0 1 1407.0557 722.082)" fill="#FFFFFF" font-family="'MyriadPro-Regular'" font-size="21.6097">Silo</text>
<text transform="matrix(1 0 0 1 1028.3516 815.9297)" fill="#FFFFFF" font-family="'MyriadPro-Bold'" font-size="90.3282">A</text>
<text transform="matrix(1 0 0 1 1393.7617 815.9297)" fill="#FFFFFF" font-family="'MyriadPro-Bold'" font-size="90.3282">4</text>
</svg>
